PathFileType	4	(X/Y/Z)	C:/Users/beibeiliu/ov580/test_trc/User3\out2_training_dense_right.trc
DataRate	CameraRate	NumFrames	NumMarkers	Units	OrigDataRate	OrigDataStartFrame	OrigNumFrames
120	120	18	19	mm	120	438	500
Frame#	Time	ThumbCMC			ThumbMCP			ThumbIP			ThumbTip			IndexMCP			IndexPIP			IndexTip			MiddleMCP			MiddlePIP			MiddleTip			RingMCP			RingPIP			RingTip			PinkyMCP			PinkyPIP			PinkyTip			BackHand1			BackHand2			BackHand3	
		X0	Y0	Z0	X1	Y1	Z1	X2	Y2	Z2	X3	Y3	Z3	X4	Y4	Z4	X5	Y5	Z5	X6	Y6	Z6	X7	Y7	Z7	X8	Y8	Z8	X9	Y9	Z9	X10	Y10	Z10	X11	Y11	Z11	X12	Y12	Z12	X13	Y13	Z13	X14	Y14	Z14	X15	Y15	Z15	X16	Y16	Z16	X17	Y17	Z17	X18	Y18	Z18	
437	3.64167	171.974	2.28766	41.6628	165.755	21.6535	16.4254	161.405	35.6825	-7.68279	150.495	45.6279	-30.673	160.423	-11.5119	-30.9191	151.858	13.0056	-53.3159	139.231	35.9211	-53.2282	142.456	-28.2622	-36.1178	134.685	-7.73811	-63.7966	119.482	20.7758	-73.4395	123.784	-36.4917	-29.1635	113.782	-26.8079	-49.7149	101.703	-3.05918	-64.4681	101.509	-38.9589	-8.66512	92.4793	-30.9091	-28.7377	85.3265	-7.56052	-47.41	133.331	-47.9443	23.7815	135.966	-49.9247	54.9839	164.162	-36.8555	36.1484	
438	3.65	170.923	0.842121	42.838	167.413	21.8301	17.626	163.615	36.4638	-10.0721	148.801	41.3898	-28.7439	163.654	-9.31529	-33.5464	151.963	12.8876	-50.4255	140.296	43.2744	-47.797	143.825	-28.3423	-35.3977	138.933	-11.9547	-62.9995	124.685	18.7477	-77.4272	125.849	-37.3873	-25.8678	116.91	-24.2885	-54.2464	108.861	-2.51953	-66.2922	105.02	-37.0791	-10.0174	93.2334	-27.2709	-31.9629	86.2862	-6.39914	-46.123	135.487	-47.6754	22.4996	134.85	-50.134	53.0991	165.574	-35.5947	36.288	
439	3.65833	173.45	2.72744	42.4876	168.107	21.3671	15.0241	163.834	36.8723	-10.7624	151.039	44.6736	-29.9447	162.474	-9.02841	-32.3847	154.707	16.9957	-51.3237	138.076	40.5611	-47.1094	144.006	-28.7175	-36.0179	141.932	-12.5098	-63.6557	123.104	16.107	-79.2801	125.625	-36.56	-28.6811	121.553	-25.3314	-53.649	105.691	0.372984	-69.6942	107.969	-34.6754	-11.4633	93.0459	-24.9822	-33.5781	87.4091	-2.92265	-47.9139	135.934	-47.0244	25.8657	135.683	-49.8034	57.3596	168.757	-33.5401	34.0327	
440	3.66667	175.522	4.27788	43.7736	171.117	23.4312	18.9928	165.091	38.4434	-8.74823	151.028	45.6328	-29.4911	165.254	-7.859	-32.6791	156.626	14.958	-51.5169	138.416	42.6841	-46.5909	147.005	-28.3577	-37.7918	143.039	-14.2568	-63.0739	124.915	14.8434	-82.9212	129.245	-34.5011	-28.982	120.48	-26.2088	-52.4083	109.206	1.87973	-69.9113	105.858	-34.7819	-13.5587	93.7022	-23.0951	-33.9582	89.1348	-5.81083	-44.2627	136.147	-45.6524	23.6935	136.103	-50.6229	53.4241	166.757	-35.4492	33.8311	
441	3.675	172.601	3.01702	39.4093	169.126	22.485	13.206	164.476	38.8076	-12.5254	149.69	44.4502	-30.9189	165.409	-9.84655	-32.4658	155.386	12.8416	-51.7569	143.595	41.3241	-49.2686	150.455	-27.4201	-39.8017	140.185	-14.5853	-65.0237	131.898	13.8287	-82.6206	128.267	-34.7441	-29.5508	119.025	-24.2664	-55.722	109.191	-1.3363	-67.7076	104.792	-35.291	-13.64	94.7201	-25.1137	-32.7769	86.1831	-2.89506	-45.6346	137.735	-45.8686	22.5343	139.552	-48.7331	50.6968	168.512	-35.2335	35.6566	
442	3.68333	172.806	3.63529	42.1279	169.374	24.6754	13.9344	161.809	38.2525	-9.66595	148.998	47.8488	-32.2223	167.216	-8.47556	-36.5913	157.748	13.7484	-54.6194	144.073	40.5185	-53.4595	151.197	-28.4355	-37.7859	145.637	-12.2034	-66.0335	132.148	15.1292	-79.6066	131.017	-34.0051	-26.881	122.901	-23.1214	-54.3957	112.028	1.3126	-67.0221	108.051	-34.6003	-11.2287	95.9631	-26.1218	-32.5167	84.9313	-7.27452	-46.7763	139.53	-45.8699	24.8307	137.551	-47.058	54.8907	166.131	-34.5972	33.5518	
443	3.69167	174.899	4.55933	38.2194	168.036	23.8636	12.1442	161.269	38.9836	-11.5274	146.621	46.1282	-32.4219	168.729	-13.7366	-31.1815	159.06	7.35137	-56.5061	150.072	38.0467	-56.9383	152.437	-26.7791	-38.2559	142.393	-7.10571	-64.5222	129.52	21.5114	-70.2972	129.441	-33.8431	-28.1485	121.825	-21.0289	-55.1897	114.069	4.77881	-65.3408	107.446	-37.1591	-12.6369	100.878	-27.9364	-34.0331	90.0083	-8.12719	-48.9514	136.53	-46.7884	25.8192	137.35	-49.6283	52.0328	166.333	-36.3415	35.3514	
444	3.7	177.095	4.84483	41.7855	166.973	23.5891	14.2222	159.107	37.3277	-8.80292	145.285	43.3334	-27.0508	166.333	-14.5515	-34.5293	162.98	7.43873	-57.5751	153.519	34.9731	-59.5301	150.265	-23.4784	-39.0191	141.752	-0.115731	-61.0266	130.155	33.941	-58.6028	130.044	-33.6763	-30.1884	122.613	-20.5669	-51.9276	111.613	12.5685	-59.8792	109.148	-36.3829	-7.29543	100.839	-29.7111	-34.6525	92.0546	-10.5894	-51.2773	140.249	-47.2464	22.3124	140.498	-47.6724	55.8288	168.256	-36.6805	37.4847	
445	3.70833	177.656	4.92827	43.4398	168.419	24.9581	14.034	157.377	35.4161	-11.799	143.915	42.7761	-28.2026	168.598	-15.2436	-33.7565	166.516	3.00054	-54.747	154.126	29.0386	-62.2475	149.869	-20.6169	-38.2876	141.738	2.86719	-57.0283	125.591	36.1909	-47.508	134.506	-31.1056	-27.9842	121.358	-18.9758	-50.0538	115.159	10.1835	-57.6776	113.114	-37.2007	-8.62158	105.016	-32.1678	-34.6236	95.5623	-16.2773	-52.5815	139.536	-46.2035	26.7033	138.975	-48.4733	53.3827	169.982	-37.2697	40.5061	
446	3.71667	174.646	2.49728	41.8549	169.231	27.1407	17.7228	157.441	38.856	-12.0564	140.512	39.4134	-25.1984	170.051	-15.3337	-29.5699	159.893	4.10311	-56.7433	152.665	26.8927	-62.7886	148.768	-19.7751	-38.1579	141.159	3.23886	-55.0168	128.6	39.2039	-43.6276	133.695	-30.2938	-28.7803	123.296	-18.5705	-49.3959	113.846	11.1058	-55.1504	112.269	-37.7291	-9.27464	103.833	-32.9275	-32.9496	95.2319	-17.8497	-54.0372	141.099	-45.774	28.7203	141.65	-48.9941	55.1403	173.281	-35.6808	40.288	
447	3.725	176.956	6.0041	46.2293	165.488	25.5852	14.0787	154.76	35.8375	-10.2191	136.433	39.6799	-28.8244	171.487	-14.7963	-29.5719	163.498	0.973281	-54.3855	150.448	25.6146	-64.1549	147.696	-21.6323	-32.578	140.417	3.91835	-53.5562	127.627	39.6015	-43.4806	135.486	-31.108	-23.8206	126.426	-16.0347	-49.4603	114.659	16.1715	-55.4329	114.3	-35.7608	-6.26322	103.583	-32.7008	-32.3092	96.4356	-20.3191	-51.2487	140.472	-46.5112	23.9195	141.013	-46.9168	54.3385	170.511	-35.1172	39.0839	
448	3.73333	173.957	3.42551	44.6925	167.778	27.9217	17.2091	152.818	35.9134	-7.0662	134.482	38.587	-29.4386	173.002	-15.8217	-29.0291	160.434	1.93256	-56.5071	150.355	23.4444	-64.3806	148.237	-22.685	-33.9759	141.236	2.33753	-55.2664	125.556	37.1969	-46.4407	134.441	-32.282	-27.7187	122.108	-15.2394	-50.9475	112.888	13.2723	-56.2941	114.476	-37.3117	-6.30535	108.356	-33.5819	-31.9684	99.7102	-20.7222	-50.6664	145.028	-46.8952	27.2613	142.942	-46.9594	58.6105	175.893	-35.0062	38.2774	
449	3.74167	174.974	3.15049	42.4346	165.168	25.2862	18.5943	155.385	38.6208	-8.34415	137.105	39.8079	-26.1839	173.346	-17.2489	-28.5114	167.871	-1.00652	-56.4902	154.38	21.3709	-66.8686	155.125	-23.1539	-33.9805	142.377	-0.966264	-57.1795	130.408	34.806	-52.5232	133.483	-33.5858	-26.9727	125.934	-16.0087	-51.8009	113.868	8.58045	-55.6348	116.203	-37.6762	-6.39762	109.349	-34.5936	-29.8769	102.903	-20.2643	-48.8002	145.345	-46.5362	27.6072	142.161	-47.3652	54.6623	175.674	-34.7611	41.1362	
450	3.75	178.009	6.07818	43.4173	165.981	25.8432	14.0214	151.673	33.1844	-11.3711	134.635	36.6801	-28.1205	178.456	-16.8671	-32.4953	169.54	-6.0379	-54.8016	159.983	22.7897	-71.3648	154.434	-26.2389	-32.9148	145.558	-6.10463	-58.2787	130.064	27.635	-57.0008	138.861	-30.9941	-23.9489	125.154	-13.7004	-49.3329	117.266	13.8569	-54.4606	119.631	-37.8195	-8.35435	111.067	-32.3411	-31.7193	99.6853	-16.0573	-50.8372	146.635	-45.9817	26.8288	146.275	-47.275	58.9934	177.016	-35.0555	41.556	
451	3.75833	177.289	6.55699	43.5887	165.879	26.9907	14.0914	150.663	35.0444	-10.8869	129.656	31.2682	-29.5294	178.894	-17.2982	-29.8472	172.779	-2.0587	-58.7886	161.265	16.2933	-70.1385	158.276	-25.5319	-31.8151	146.2	-2.60343	-58.2952	131.118	32.5842	-54.4466	136.959	-30.7658	-26.6511	127.596	-11.3561	-48.4459	117.124	19.4172	-47.5967	125.358	-38.5463	-11.431	113.826	-36.0206	-29.7943	105.197	-19.2537	-51.9761	150.138	-46.7906	29.3379	148.526	-46.9894	60.0231	180.135	-31.4989	41.0033	
452	3.76667	176.193	9.83271	42.0566	162.037	29.7745	15.7421	143.615	29.1898	-12.2483	124.618	27.9143	-28.9348	179.617	-14.7938	-32.074	176.208	-1.06284	-56.3172	163.067	19.3595	-71.2012	160.358	-23.0309	-34.5449	147.544	-2.55352	-56.1317	126.272	31.3764	-49.4788	144.256	-29.8341	-25.6316	130.41	-14.5682	-45.0939	113.903	14.2548	-43.8617	128.103	-41.4718	-10.8454	119.787	-37.8869	-31.1727	110.978	-25.8698	-50.6379	157.387	-47.1898	27.601	155.644	-44.5733	59.4257	184.076	-26.9366	38.0827	
453	3.775	173.66	14.1466	41.6707	156.61	30.3761	11.8781	139.812	32.464	-12.3483	121.031	22.7344	-29.8879	185.735	-6.08894	-30.5287	174.533	3.81596	-56.8119	158.188	21.6981	-71.8394	165.867	-18.087	-33.3741	148.686	0.224325	-54.4	125.45	29.4787	-46.8999	145.267	-30.9386	-23.0031	127.357	-13.8021	-45.0377	111.965	9.34313	-42.3971	133.313	-44.9456	-10.5631	123.233	-39.3507	-34.5106	115.967	-29.4454	-51.006	160.798	-45.1248	25.3803	160.81	-45.9769	60.33	188.298	-21.3854	38.2876	
454	3.78333	170.328	20.8898	46.2015	152.283	35.9968	14.6172	135.914	29.5263	-13.3284	119.251	20.6506	-26.7159	185.631	-2.45377	-30.2637	176.254	10.0673	-56.701	159.984	23.5512	-70.6448	169.015	-15.209	-34.1552	150.771	-0.637224	-54.2074	124.8	24.9378	-48.7102	153.945	-29.4456	-25.1875	133.758	-14.0832	-47.0201	112.456	7.66342	-44.0119	143.006	-42.5704	-6.94833	133.569	-39.7212	-34.4233	118.919	-27.6869	-52.1735	169.354	-41.7247	28.5772	166.046	-42.675	57.6502	189.212	-14.9106	43.7445	
